<svg width="36" height="36" viewBox="0 0 36 36" fill="none" xmlns="http://www.w3.org/2000/svg">
<path d="M7.79738 4.94877C8.70069 3 11.8005 3 18 3C24.1995 3 27.2993 3 28.2026 4.94877C28.2803 5.11628 28.3458 5.29028 28.3985 5.46914C29.0121 7.54994 26.8203 9.96167 22.4365 14.7851L19.5 18L22.4365 21.2149C26.8203 26.0383 29.0121 28.4501 28.3985 30.5309C28.3458 30.7097 28.2803 30.8837 28.2026 31.0512C27.2993 33 24.1995 33 18 33C11.8005 33 8.70069 33 7.79738 31.0512C7.71973 30.8837 7.65423 30.7097 7.60148 30.5309C6.98785 28.4501 9.17972 26.0383 13.5635 21.2149L16.5 18L13.5635 14.7851C9.17972 9.96167 6.98785 7.54994 7.60148 5.46914C7.65423 5.29028 7.71973 5.11628 7.79738 4.94877Z" fill="#17194A"/>
<rect x="13.2" y="8" width="8.93" height="1.5" rx="0.75" transform="rotate(0.525635 13.2 8)" fill="#93C4FD"/>
<path d="M13.1931 27.5498C13.1969 27.1356 13.5357 26.8029 13.9499 26.8067L21.3796 26.8748C21.7938 26.8786 22.1265 27.2175 22.1227 27.6317V27.6317C22.1189 28.0459 21.78 28.3786 21.3658 28.3748L13.9362 28.3066C13.522 28.3028 13.1893 27.964 13.1931 27.5498V27.5498Z" fill="#93C4FD"/>
<circle cx="18" cy="18" r="1.5" fill="#93C4FD"/>
</svg>
